<?xml version="1.0" encoding="UTF-8"?>
<svg id="Layer_2" data-name="Layer 2" xmlns="http://www.w3.org/2000/svg" xmlns:xlink="http://www.w3.org/1999/xlink" viewBox="0 0 160 160">
  <defs>
    <style>
      .cls-1 {
        fill: url(#linear-gradient);
      }

      .cls-2 {
        fill: #fff;
      }
    </style>
    <linearGradient id="linear-gradient" x1="1.78" y1="79.99" x2="158.57" y2="79.99" gradientUnits="userSpaceOnUse">
      <stop offset="0" stop-color="#ff81ad"/>
      <stop offset="1" stop-color="#ff65d0"/>
    </linearGradient>
  </defs>
  <g id="Generative_Object" data-name="Generative Object">
    <path class="cls-1" d="M155.52,136.99c-5.83,11.05-16.47,20.59-29.63,21.04-30.44,1.04-60.93.14-91.56.34-3.67.02-7.56-1.64-10.92-2.77-2.63-.89-5.46-3.42-7.8-5.1-7.25-5.19-13.82-16.79-13.82-24.73l.04-92.06c0-7.43,4.29-14.17,8.56-19.68,2.61-3.37,5.77-5.42,8.97-7.44,1.72-1.08,3.55-1.99,5.46-2.68,3.22-1.16,6.5-2.49,10.14-2.49l90.68.13c8.22.01,18.75,6.02,24.8,13.41,5.27,6.44,8.14,14.27,8.13,22.77l-.07,85.26c0,4.43-.9,10.05-2.99,14Z"/>
    <g>
      <path class="cls-2" d="M66.71,81.15l-22.29,3.93c-1.38.24-2.63-1.53-3.31-2.36l-3.8-11.93c-2.26-7.11-3.68-14.19-3.03-21.7.58-6.62,1.68-10.09,3.67-15.89,2.22-4.22,4.98-8.29,9.13-10.97,5.46-3.52,11.95-2.89,16.81,1.17,7.37,6.17,10.47,20.09,9.63,29.57-.7,7.89-4.02,9.11-4.42,24.83-.04,1.44-1.59,2.58-2.39,3.35Z"/>
      <path class="cls-2" d="M90.41,56.86c3.59-6.9,9-12.91,17.75-11.94,4.64.51,8.67,3.73,11.45,7.78,3.55,5.17,5.4,11.19,6.03,17.52.89,9.02-.67,16.94-3.31,24.82l-4.2,12.52c-.47,1.4-2.26,2.48-3.56,2.19l-21.04-4.58c-1.37-.3-2.7-2.21-2.74-3.44l-.18-6.01c-.19-6.63-3.73-11.17-3.77-19,0-.6-.29-1.01-.09-1.74.38-1.35.12-2.99.29-4.49.54-4.78,1.91-9.2,3.37-13.63Z"/>
      <path class="cls-2" d="M54.7,114.59c-5.05-2.58-7.31-7.58-8.36-12.51l-1-4.66c-.43-2.02,1.35-3.47,3.26-3.83l18.07-3.41c1.6-.3,2.86-.37,4.22.73,2.41,1.96,2.81,6.8,3.29,10.22,1.02,7.29-4.37,13.07-11.57,14.18-3.7.57-4.61-.2-7.9-.73Z"/>
      <path class="cls-2" d="M112.62,130.12c-2.36,7.33-8.1,10.88-16.06,9.55-5.16-.86-9.86-4.68-10.43-10.11-.44-4.23.21-8.79,1.74-12.73.56-1.44,2.76-2.68,3.95-2.43l20.59,4.41c1.89.4,2.43,2.71,2.08,4.26-.57,2.54-1.11,4.71-1.87,7.05Z"/>
    </g>
  </g>
</svg>